M48
; DRILL file {KiCad 5.1.1} date Tue 18 Jun 2019 10:22:17 PM CDT
; FORMAT={-:-/ absolute / inch / decimal}
; #@! TF.CreationDate,2019-06-18T22:22:17-05:00
; #@! TF.GenerationSoftware,Kicad,Pcbnew,5.1.1
; #@! TF.FileFunction,Plated,1,2,PTH
FMAT,2
INCH
T1C0.0276
T2C0.0394
T3C0.0400
T4C0.1200
%
G90
G05
T1
X4.8457Y-3.4819
X4.8457Y-4.3481
X4.9244Y-3.4819
X4.9244Y-4.3481
X5.0031Y-3.4819
X5.0031Y-4.3481
X5.0819Y-3.4819
X5.0819Y-4.3481
X5.1606Y-3.4819
X5.1606Y-4.3481
X5.2394Y-3.4819
X5.2394Y-4.3481
X5.3181Y-3.4819
X5.3181Y-4.3481
X5.3969Y-3.4819
X5.3969Y-4.3481
X5.4756Y-3.4819
X5.4756Y-4.3481
X5.5543Y-3.4819
X5.5543Y-4.3481
T2
X5.7749Y-3.125
X5.7749Y-3.225
X5.7749Y-3.325
X4.9Y-4.6881
X5.0Y-4.6881
X5.1Y-4.6881
X5.2Y-4.6881
X5.3Y-4.6881
X5.4Y-4.6881
X5.5Y-4.6881
X5.6Y-4.6881
X5.7Y-4.6881
X5.8Y-4.6881
X6.3774Y-3.125
X6.3774Y-3.225
X6.3774Y-3.325
X6.3774Y-3.425
X6.3774Y-3.525
X6.3774Y-3.625
X6.3774Y-3.725
X6.3774Y-3.825
X6.3774Y-3.925
X6.3774Y-4.025
X6.3774Y-4.125
X6.3774Y-4.225
X6.3774Y-4.325
X6.3774Y-4.425
X6.7318Y-3.125
X6.7318Y-3.225
X6.7318Y-3.325
X6.7318Y-3.425
X6.7318Y-3.525
X6.7318Y-3.625
X6.7318Y-3.725
X6.7318Y-3.825
X6.7318Y-3.925
X6.7318Y-4.025
X6.7318Y-4.125
X6.7318Y-4.225
X6.7318Y-4.325
X6.7318Y-4.425
X5.905Y-3.125
X5.905Y-3.225
X5.905Y-3.325
X5.905Y-3.425
X5.905Y-3.525
X5.905Y-3.625
X5.905Y-3.725
X5.905Y-3.825
X5.905Y-3.925
X5.905Y-4.025
X5.905Y-4.125
X5.905Y-4.225
X5.905Y-4.325
X5.905Y-4.425
X5.915Y-4.69
X6.015Y-4.69
X6.115Y-4.69
X6.215Y-4.69
X6.315Y-4.69
X6.415Y-4.69
X6.515Y-4.69
X6.615Y-4.69
X6.715Y-4.69
X6.815Y-4.69
X5.1843Y-3.125
X5.1843Y-3.225
X5.1843Y-3.325
X4.83Y-3.125
X4.83Y-3.225
X4.83Y-3.325
X5.5387Y-3.125
X5.5387Y-3.225
X5.5387Y-3.325
X6.975Y-4.125
X6.975Y-4.225
X6.975Y-4.325
X6.975Y-4.425
X5.4206Y-3.125
X5.4206Y-3.225
X5.4206Y-3.325
X5.0662Y-3.125
X5.0662Y-3.225
X5.0662Y-3.325
X6.1412Y-3.125
X6.1412Y-3.225
X6.1412Y-3.325
X6.1412Y-3.425
X6.1412Y-3.525
X6.1412Y-3.625
X6.1412Y-3.725
X6.1412Y-3.825
X6.1412Y-3.925
X6.1412Y-4.025
X6.1412Y-4.125
X6.1412Y-4.225
X6.1412Y-4.325
X6.1412Y-4.425
X6.0231Y-3.125
X6.0231Y-3.225
X6.0231Y-3.325
X6.0231Y-3.425
X6.0231Y-3.525
X6.0231Y-3.625
X6.0231Y-3.725
X6.0231Y-3.825
X6.0231Y-3.925
X6.0231Y-4.025
X6.0231Y-4.125
X6.0231Y-4.225
X6.0231Y-4.325
X6.0231Y-4.425
X5.915Y-4.57
X6.015Y-4.57
X6.115Y-4.57
X6.215Y-4.57
X6.315Y-4.57
X6.415Y-4.57
X6.515Y-4.57
X6.615Y-4.57
X6.715Y-4.57
X6.815Y-4.57
X5.6568Y-3.125
X5.6568Y-3.225
X5.6568Y-3.325
X5.3024Y-3.125
X5.3024Y-3.225
X5.3024Y-3.325
X6.2593Y-3.125
X6.2593Y-3.225
X6.2593Y-3.325
X6.2593Y-3.425
X6.2593Y-3.525
X6.2593Y-3.625
X6.2593Y-3.725
X6.2593Y-3.825
X6.2593Y-3.925
X6.2593Y-4.025
X6.2593Y-4.125
X6.2593Y-4.225
X6.2593Y-4.325
X6.2593Y-4.425
X6.85Y-4.125
X6.85Y-4.225
X6.85Y-4.325
X6.85Y-4.425
X4.9481Y-3.125
X4.9481Y-3.225
X4.9481Y-3.325
X6.4956Y-3.125
X6.4956Y-3.225
X6.4956Y-3.325
X6.4956Y-3.425
X6.4956Y-3.525
X6.4956Y-3.625
X6.4956Y-3.725
X6.4956Y-3.825
X6.4956Y-3.925
X6.4956Y-4.025
X6.4956Y-4.125
X6.4956Y-4.225
X6.4956Y-4.325
X6.4956Y-4.425
X6.6137Y-3.125
X6.6137Y-3.225
X6.6137Y-3.325
X6.6137Y-3.425
X6.6137Y-3.525
X6.6137Y-3.625
X6.6137Y-3.725
X6.6137Y-3.825
X6.6137Y-3.925
X6.6137Y-4.025
X6.6137Y-4.125
X6.6137Y-4.225
X6.6137Y-4.325
X6.6137Y-4.425
X4.9Y-4.57
X5.0Y-4.57
X5.1Y-4.57
X5.2Y-4.57
X5.3Y-4.57
X5.4Y-4.57
X5.5Y-4.57
X5.6Y-4.57
X5.7Y-4.57
X5.8Y-4.57
T3
X5.11Y-2.975
X5.21Y-2.975
X5.31Y-2.975
X5.41Y-2.975
X5.51Y-2.975
X5.61Y-2.975
X5.71Y-2.975
X5.81Y-2.975
X5.91Y-2.975
X6.01Y-2.975
X6.37Y-4.875
X6.47Y-4.875
X6.57Y-4.875
X6.67Y-4.875
X6.77Y-4.875
X6.87Y-4.875
X6.17Y-2.975
X6.27Y-2.975
X6.37Y-2.975
X6.47Y-2.975
X6.57Y-2.975
X6.67Y-2.975
X6.77Y-2.975
X6.87Y-2.975
X5.47Y-4.875
X5.57Y-4.875
X5.67Y-4.875
X5.77Y-4.875
X5.87Y-4.875
X5.97Y-4.875
X6.07Y-4.875
X6.17Y-4.875
T4
X6.97Y-4.675
X4.92Y-4.875
X4.97Y-2.975
X6.97Y-3.575
T0
M30
