G04 #@! TF.GenerationSoftware,KiCad,Pcbnew,5.1.2*
G04 #@! TF.CreationDate,2019-08-04T18:28:35-05:00*
G04 #@! TF.ProjectId,arduino_shield,61726475-696e-46f5-9f73-6869656c642e,rev?*
G04 #@! TF.SameCoordinates,Original*
G04 #@! TF.FileFunction,Soldermask,Bot*
G04 #@! TF.FilePolarity,Negative*
%FSLAX46Y46*%
G04 Gerber Fmt 4.6, Leading zero omitted, Abs format (unit mm)*
G04 Created by KiCad (PCBNEW 5.1.2) date 2019-08-04 18:28:35*
%MOMM*%
%LPD*%
G04 APERTURE LIST*
%ADD10C,4.064000*%
%ADD11C,1.700000*%
%ADD12R,1.700000X1.700000*%
%ADD13C,3.600000*%
%ADD14O,1.700000X1.700000*%
%ADD15O,1.727200X2.032000*%
G04 APERTURE END LIST*
D10*
X195326000Y-120777000D03*
X195453000Y-65405000D03*
X100076000Y-65405000D03*
D11*
X113731000Y-67437000D03*
X113731000Y-69977000D03*
X111191000Y-67437000D03*
D12*
X111191000Y-69977000D03*
D11*
X149291000Y-67437000D03*
X149291000Y-69977000D03*
X146751000Y-67437000D03*
X146751000Y-69977000D03*
X144211000Y-67437000D03*
X144211000Y-69977000D03*
X141671000Y-67437000D03*
X141671000Y-69977000D03*
X139131000Y-67437000D03*
X139131000Y-69977000D03*
X136591000Y-67437000D03*
X136591000Y-69977000D03*
X134051000Y-67437000D03*
X134051000Y-69977000D03*
X131511000Y-67437000D03*
X131511000Y-69977000D03*
X128971000Y-67437000D03*
X128971000Y-69977000D03*
X126431000Y-67437000D03*
D12*
X126431000Y-69977000D03*
D11*
X184851000Y-67437000D03*
X184851000Y-69977000D03*
X182311000Y-67437000D03*
X182311000Y-69977000D03*
X179771000Y-67437000D03*
X179771000Y-69977000D03*
X177231000Y-67437000D03*
X177231000Y-69977000D03*
X174691000Y-67437000D03*
X174691000Y-69977000D03*
X172151000Y-67437000D03*
X172151000Y-69977000D03*
X169611000Y-67437000D03*
X169611000Y-69977000D03*
X167071000Y-67437000D03*
X167071000Y-69977000D03*
X164531000Y-67437000D03*
X164531000Y-69977000D03*
X161991000Y-67437000D03*
D12*
X161991000Y-69977000D03*
D11*
X193271000Y-104437000D03*
X190731000Y-104437000D03*
X193271000Y-101897000D03*
X190731000Y-101897000D03*
X193271000Y-99357000D03*
X190731000Y-99357000D03*
X193271000Y-96817000D03*
X190731000Y-96817000D03*
X193271000Y-94277000D03*
X190731000Y-94277000D03*
X193271000Y-91737000D03*
X190731000Y-91737000D03*
X193271000Y-89197000D03*
X190731000Y-89197000D03*
X193271000Y-86657000D03*
X190731000Y-86657000D03*
X193271000Y-84117000D03*
X190731000Y-84117000D03*
X193271000Y-81577000D03*
D12*
X190731000Y-81577000D03*
D13*
X195351000Y-65357000D03*
X100051000Y-65357000D03*
X195351000Y-120657000D03*
D11*
X101854000Y-120015000D03*
X99314000Y-120015000D03*
X101803200Y-76860400D03*
X99263200Y-74320400D03*
X99263200Y-76860400D03*
X101803200Y-74320400D03*
X111963200Y-76860400D03*
X106883200Y-74320400D03*
X104343200Y-76860400D03*
X114503200Y-76860400D03*
X109423200Y-76860400D03*
X106883200Y-76860400D03*
X122123200Y-76860400D03*
X119583200Y-74320400D03*
X111963200Y-74320400D03*
X119583200Y-76860400D03*
X109423200Y-74320400D03*
X117043200Y-76860400D03*
X117043200Y-74320400D03*
X122123200Y-74320400D03*
X114503200Y-74320400D03*
X104343200Y-74320400D03*
X122174000Y-117449600D03*
X122174000Y-114909600D03*
X119634000Y-117475000D03*
X117094000Y-117475000D03*
X114554000Y-117475000D03*
X112014000Y-117475000D03*
X109474000Y-117475000D03*
X106934000Y-117475000D03*
X104394000Y-117475000D03*
X101854000Y-117475000D03*
X99314000Y-117475000D03*
X119634000Y-114935000D03*
X117094000Y-114935000D03*
X114554000Y-114935000D03*
X112014000Y-114935000D03*
X109474000Y-114935000D03*
X106934000Y-114935000D03*
X104394000Y-114935000D03*
X101854000Y-114935000D03*
X99314000Y-114935000D03*
X119634000Y-112395000D03*
X117094000Y-112395000D03*
X114554000Y-112395000D03*
X112014000Y-112395000D03*
X109474000Y-112395000D03*
X106934000Y-112395000D03*
X104394000Y-112395000D03*
X101854000Y-112395000D03*
X99314000Y-112395000D03*
X119634000Y-109855000D03*
X117094000Y-109855000D03*
X114554000Y-109855000D03*
X112014000Y-109855000D03*
X109474000Y-109855000D03*
X106934000Y-109855000D03*
X104394000Y-109855000D03*
X101854000Y-109855000D03*
X99314000Y-109855000D03*
X119634000Y-107315000D03*
X117094000Y-107315000D03*
X114554000Y-107315000D03*
X112014000Y-107315000D03*
X109474000Y-107315000D03*
X106934000Y-107315000D03*
X104394000Y-107315000D03*
X101854000Y-107315000D03*
X99314000Y-107315000D03*
X119634000Y-104775000D03*
X117094000Y-104775000D03*
X114554000Y-104775000D03*
X112014000Y-104775000D03*
X109474000Y-104775000D03*
X106934000Y-104775000D03*
X104394000Y-104775000D03*
X101854000Y-104775000D03*
X99314000Y-104775000D03*
X119634000Y-102235000D03*
X117094000Y-102235000D03*
X114554000Y-102235000D03*
X112014000Y-102235000D03*
X109474000Y-102235000D03*
X106934000Y-102235000D03*
X104394000Y-102235000D03*
X101854000Y-102235000D03*
X99314000Y-102235000D03*
X119634000Y-99695000D03*
X117094000Y-99695000D03*
X114554000Y-99695000D03*
X112014000Y-99695000D03*
X109474000Y-99695000D03*
X106934000Y-99695000D03*
X104394000Y-99695000D03*
X101854000Y-99695000D03*
X99314000Y-99695000D03*
X119634000Y-97155000D03*
X117094000Y-97155000D03*
X114554000Y-97155000D03*
X112014000Y-97155000D03*
X109474000Y-97155000D03*
X106934000Y-97155000D03*
X104394000Y-97155000D03*
X101854000Y-97155000D03*
X99314000Y-97155000D03*
X119634000Y-94615000D03*
X117094000Y-94615000D03*
X114554000Y-94615000D03*
X112014000Y-94615000D03*
X109474000Y-94615000D03*
X106934000Y-94615000D03*
X104394000Y-94615000D03*
X101854000Y-94615000D03*
X99314000Y-94615000D03*
X119634000Y-92075000D03*
X117094000Y-92075000D03*
X114554000Y-92075000D03*
X112014000Y-92075000D03*
X109474000Y-92075000D03*
X106934000Y-92075000D03*
X104394000Y-92075000D03*
X101854000Y-92075000D03*
X99314000Y-92075000D03*
X119634000Y-89535000D03*
X117094000Y-89535000D03*
X114554000Y-89535000D03*
X112014000Y-89535000D03*
X109474000Y-89535000D03*
X106934000Y-89535000D03*
X104394000Y-89535000D03*
X101854000Y-89535000D03*
X99314000Y-89535000D03*
X119634000Y-86995000D03*
X117094000Y-86995000D03*
X114554000Y-86995000D03*
X112014000Y-86995000D03*
X109474000Y-86995000D03*
X106934000Y-86995000D03*
X104394000Y-86995000D03*
X101854000Y-86995000D03*
X99314000Y-86995000D03*
X119634000Y-84455000D03*
X117094000Y-84455000D03*
X114554000Y-84455000D03*
X112014000Y-84455000D03*
X109474000Y-84455000D03*
X106934000Y-84455000D03*
X104394000Y-84455000D03*
X101854000Y-84455000D03*
X99314000Y-84455000D03*
X119634000Y-81915000D03*
X117094000Y-81915000D03*
X114554000Y-81915000D03*
X112014000Y-81915000D03*
X109474000Y-81915000D03*
X106934000Y-81915000D03*
X104394000Y-81915000D03*
X101854000Y-81915000D03*
X99314000Y-81915000D03*
X195834000Y-79375000D03*
X188214000Y-79375000D03*
X185674000Y-79375000D03*
X183134000Y-79375000D03*
X180594000Y-79375000D03*
X178054000Y-79375000D03*
X175514000Y-79375000D03*
X172974000Y-79375000D03*
X170434000Y-79375000D03*
X167894000Y-79375000D03*
X165354000Y-79375000D03*
X162814000Y-79375000D03*
X160274000Y-79375000D03*
X157734000Y-79375000D03*
X155194000Y-79375000D03*
X152654000Y-79375000D03*
X150114000Y-79375000D03*
X147574000Y-79375000D03*
X145034000Y-79375000D03*
X142494000Y-79375000D03*
X139954000Y-79375000D03*
X137414000Y-79375000D03*
X134874000Y-79375000D03*
X132334000Y-79375000D03*
X129794000Y-79375000D03*
X127254000Y-79375000D03*
X124714000Y-79375000D03*
X122174000Y-79375000D03*
X119634000Y-79375000D03*
X117094000Y-79375000D03*
X114554000Y-79375000D03*
X112014000Y-79375000D03*
X109474000Y-79375000D03*
X106934000Y-79375000D03*
X104394000Y-79375000D03*
X101854000Y-79375000D03*
X99314000Y-79375000D03*
D14*
X147574000Y-120142000D03*
X145034000Y-120142000D03*
X142494000Y-120142000D03*
X139954000Y-120142000D03*
X137414000Y-120142000D03*
X134874000Y-120142000D03*
X132334000Y-120142000D03*
D12*
X129794000Y-120142000D03*
D14*
X124714000Y-120142000D03*
X122174000Y-120142000D03*
X119634000Y-120142000D03*
X117094000Y-120142000D03*
X114554000Y-120142000D03*
X112014000Y-120142000D03*
X109474000Y-120142000D03*
D12*
X106934000Y-120142000D03*
D14*
X170561000Y-120142000D03*
X168021000Y-120142000D03*
X165481000Y-120142000D03*
X162941000Y-120142000D03*
X160401000Y-120142000D03*
X157861000Y-120142000D03*
X155321000Y-120142000D03*
D12*
X152781000Y-120142000D03*
D11*
X190703200Y-120040400D03*
X188163200Y-120040400D03*
X185623200Y-120040400D03*
X183083200Y-120040400D03*
X180543200Y-120040400D03*
X195783200Y-74320400D03*
X193243200Y-74320400D03*
X190703200Y-74320400D03*
X188163200Y-74320400D03*
X185623200Y-74320400D03*
X183083200Y-74320400D03*
X180543200Y-74320400D03*
X195783200Y-76860400D03*
X193243200Y-76860400D03*
X190703200Y-76860400D03*
X188163200Y-76860400D03*
X185623200Y-76860400D03*
X183083200Y-76860400D03*
X180543200Y-76860400D03*
X178003200Y-74320400D03*
X178003200Y-76860400D03*
X195783200Y-117500400D03*
X193243200Y-117500400D03*
X190703200Y-117500400D03*
X188163200Y-117500400D03*
X185623200Y-117500400D03*
X183083200Y-117500400D03*
X180543200Y-117500400D03*
X194957700Y-69977000D03*
X192417700Y-69977000D03*
X189877700Y-69977000D03*
X192417700Y-67437000D03*
X189877700Y-67437000D03*
X156857700Y-69977000D03*
X154317700Y-69977000D03*
X156857700Y-67437000D03*
X154317700Y-67437000D03*
X121297700Y-69977000D03*
X118757700Y-69977000D03*
X121297700Y-67437000D03*
X118757700Y-67437000D03*
X189877700Y-65024000D03*
X187337700Y-65024000D03*
X184797700Y-65024000D03*
X182257700Y-65024000D03*
X179717700Y-65024000D03*
X177177700Y-65024000D03*
X174637700Y-65024000D03*
X172097700Y-65024000D03*
X169557700Y-65024000D03*
X167017700Y-65024000D03*
X164477700Y-65024000D03*
X161937700Y-65024000D03*
X159397700Y-65024000D03*
X156857700Y-65024000D03*
X154317700Y-65024000D03*
X151777700Y-65024000D03*
X149237700Y-65024000D03*
X146697700Y-65024000D03*
X144157700Y-65024000D03*
X141617700Y-65024000D03*
X139077700Y-65024000D03*
X136537700Y-65024000D03*
X133997700Y-65024000D03*
X131457700Y-65024000D03*
X128917700Y-65024000D03*
X126377700Y-65024000D03*
X123837700Y-65024000D03*
X121297700Y-65024000D03*
X118757700Y-65024000D03*
X116217700Y-65024000D03*
X113677700Y-65024000D03*
X111137700Y-65024000D03*
X108597700Y-65024000D03*
X106057700Y-65024000D03*
X103517700Y-65024000D03*
X106057700Y-70104000D03*
X103517700Y-70104000D03*
X106057700Y-67564000D03*
X103517700Y-67564000D03*
X195834000Y-104775000D03*
X195834000Y-102235000D03*
X195834000Y-99695000D03*
X195834000Y-97155000D03*
X195834000Y-94615000D03*
X195834000Y-92075000D03*
X195834000Y-89535000D03*
X195834000Y-86995000D03*
X195834000Y-84455000D03*
X195834000Y-81915000D03*
X188214000Y-102235000D03*
X185674000Y-102235000D03*
X183134000Y-102235000D03*
X180594000Y-102235000D03*
X188214000Y-99695000D03*
X185674000Y-99695000D03*
X183134000Y-99695000D03*
X180594000Y-99695000D03*
X188214000Y-97155000D03*
X185674000Y-97155000D03*
X183134000Y-97155000D03*
X180594000Y-97155000D03*
X188214000Y-94615000D03*
X185674000Y-94615000D03*
X183134000Y-94615000D03*
X180594000Y-94615000D03*
X188214000Y-92075000D03*
X185674000Y-92075000D03*
X183134000Y-92075000D03*
X180594000Y-92075000D03*
X188214000Y-89535000D03*
X185674000Y-89535000D03*
X183134000Y-89535000D03*
X180594000Y-89535000D03*
X172974000Y-117475000D03*
X170434000Y-117475000D03*
X167894000Y-117475000D03*
X165354000Y-117475000D03*
X162814000Y-117475000D03*
X160274000Y-117475000D03*
X157734000Y-117475000D03*
X155194000Y-117475000D03*
X152654000Y-117475000D03*
X150114000Y-117475000D03*
X147574000Y-117475000D03*
X145034000Y-117475000D03*
X142494000Y-117475000D03*
X139954000Y-117475000D03*
X137414000Y-117475000D03*
X134874000Y-117475000D03*
X132334000Y-117475000D03*
X129794000Y-117475000D03*
X127254000Y-117475000D03*
X124714000Y-117475000D03*
X195834000Y-114935000D03*
X193294000Y-114935000D03*
X190754000Y-114935000D03*
X188214000Y-114935000D03*
X185674000Y-114935000D03*
X183134000Y-114935000D03*
X180594000Y-114935000D03*
X178054000Y-114935000D03*
X175514000Y-114935000D03*
X172974000Y-114935000D03*
X170434000Y-114935000D03*
X167894000Y-114935000D03*
X165354000Y-114935000D03*
X162814000Y-114935000D03*
X160274000Y-114935000D03*
X157734000Y-114935000D03*
X155194000Y-114935000D03*
X152654000Y-114935000D03*
X150114000Y-114935000D03*
X147574000Y-114935000D03*
X145034000Y-114935000D03*
X142494000Y-114935000D03*
X139954000Y-114935000D03*
X137414000Y-114935000D03*
X134874000Y-114935000D03*
X132334000Y-114935000D03*
X129794000Y-114935000D03*
X127254000Y-114935000D03*
X124714000Y-114935000D03*
X195834000Y-112395000D03*
X193294000Y-112395000D03*
X190754000Y-112395000D03*
X188214000Y-112395000D03*
X185674000Y-112395000D03*
X183134000Y-112395000D03*
X180594000Y-112395000D03*
X178054000Y-112395000D03*
X175514000Y-112395000D03*
X172974000Y-112395000D03*
X170434000Y-112395000D03*
X167894000Y-112395000D03*
X165354000Y-112395000D03*
X162814000Y-112395000D03*
X160274000Y-112395000D03*
X157734000Y-112395000D03*
X155194000Y-112395000D03*
X152654000Y-112395000D03*
X150114000Y-112395000D03*
X147574000Y-112395000D03*
X145034000Y-112395000D03*
X142494000Y-112395000D03*
X139954000Y-112395000D03*
X137414000Y-112395000D03*
X134874000Y-112395000D03*
X132334000Y-112395000D03*
X129794000Y-112395000D03*
X127254000Y-112395000D03*
X124714000Y-112395000D03*
X122174000Y-112395000D03*
X195834000Y-109855000D03*
X193294000Y-109855000D03*
X190754000Y-109855000D03*
X188214000Y-109855000D03*
X185674000Y-109855000D03*
X183134000Y-109855000D03*
X180594000Y-109855000D03*
X178054000Y-109855000D03*
X175514000Y-109855000D03*
X172974000Y-109855000D03*
X170434000Y-109855000D03*
X167894000Y-109855000D03*
X165354000Y-109855000D03*
X162814000Y-109855000D03*
X160274000Y-109855000D03*
X157734000Y-109855000D03*
X155194000Y-109855000D03*
X152654000Y-109855000D03*
X150114000Y-109855000D03*
X147574000Y-109855000D03*
X145034000Y-109855000D03*
X142494000Y-109855000D03*
X139954000Y-109855000D03*
X137414000Y-109855000D03*
X134874000Y-109855000D03*
X132334000Y-109855000D03*
X129794000Y-109855000D03*
X127254000Y-109855000D03*
X124714000Y-109855000D03*
X122174000Y-109855000D03*
X195834000Y-107315000D03*
X188214000Y-107315000D03*
X185674000Y-107315000D03*
X183134000Y-107315000D03*
X180594000Y-107315000D03*
X178054000Y-107315000D03*
X175514000Y-107315000D03*
X172974000Y-107315000D03*
X170434000Y-107315000D03*
X167894000Y-107315000D03*
X165354000Y-107315000D03*
X162814000Y-107315000D03*
X160274000Y-107315000D03*
X157734000Y-107315000D03*
X155194000Y-107315000D03*
X152654000Y-107315000D03*
X150114000Y-107315000D03*
X147574000Y-107315000D03*
X145034000Y-107315000D03*
X142494000Y-107315000D03*
X139954000Y-107315000D03*
X137414000Y-107315000D03*
X134874000Y-107315000D03*
X132334000Y-107315000D03*
X129794000Y-107315000D03*
X127254000Y-107315000D03*
X124714000Y-107315000D03*
X122174000Y-107315000D03*
X188214000Y-104775000D03*
X185674000Y-104775000D03*
X183134000Y-104775000D03*
X180594000Y-104775000D03*
X178054000Y-104775000D03*
X175514000Y-104775000D03*
X172974000Y-104775000D03*
X170434000Y-104775000D03*
X167894000Y-104775000D03*
X165354000Y-104775000D03*
X162814000Y-104775000D03*
X160274000Y-104775000D03*
X157734000Y-104775000D03*
X155194000Y-104775000D03*
X152654000Y-104775000D03*
X150114000Y-104775000D03*
X147574000Y-104775000D03*
X145034000Y-104775000D03*
X142494000Y-104775000D03*
X139954000Y-104775000D03*
X137414000Y-104775000D03*
X134874000Y-104775000D03*
X132334000Y-104775000D03*
X129794000Y-104775000D03*
X127254000Y-104775000D03*
X124714000Y-104775000D03*
X122174000Y-104775000D03*
X167894000Y-102235000D03*
X165354000Y-102235000D03*
X162814000Y-102235000D03*
X160274000Y-102235000D03*
X157734000Y-102235000D03*
X155194000Y-102235000D03*
X152654000Y-102235000D03*
X150114000Y-102235000D03*
X147574000Y-102235000D03*
X145034000Y-102235000D03*
X142494000Y-102235000D03*
X139954000Y-102235000D03*
X137414000Y-102235000D03*
X134874000Y-102235000D03*
X132334000Y-102235000D03*
X129794000Y-102235000D03*
X127254000Y-102235000D03*
X124714000Y-102235000D03*
X122174000Y-102235000D03*
X167894000Y-99695000D03*
X165354000Y-99695000D03*
X162814000Y-99695000D03*
X160274000Y-99695000D03*
X157734000Y-99695000D03*
X155194000Y-99695000D03*
X152654000Y-99695000D03*
X150114000Y-99695000D03*
X147574000Y-99695000D03*
X145034000Y-99695000D03*
X142494000Y-99695000D03*
X139954000Y-99695000D03*
X137414000Y-99695000D03*
X134874000Y-99695000D03*
X132334000Y-99695000D03*
X129794000Y-99695000D03*
X127254000Y-99695000D03*
X124714000Y-99695000D03*
X122174000Y-99695000D03*
X167894000Y-97155000D03*
X165354000Y-97155000D03*
X162814000Y-97155000D03*
X160274000Y-97155000D03*
X157734000Y-97155000D03*
X155194000Y-97155000D03*
X152654000Y-97155000D03*
X150114000Y-97155000D03*
X147574000Y-97155000D03*
X145034000Y-97155000D03*
X142494000Y-97155000D03*
X139954000Y-97155000D03*
X137414000Y-97155000D03*
X134874000Y-97155000D03*
X132334000Y-97155000D03*
X129794000Y-97155000D03*
X127254000Y-97155000D03*
X124714000Y-97155000D03*
X122174000Y-97155000D03*
X167894000Y-94615000D03*
X165354000Y-94615000D03*
X162814000Y-94615000D03*
X160274000Y-94615000D03*
X157734000Y-94615000D03*
X155194000Y-94615000D03*
X152654000Y-94615000D03*
X150114000Y-94615000D03*
X147574000Y-94615000D03*
X145034000Y-94615000D03*
X142494000Y-94615000D03*
X139954000Y-94615000D03*
X137414000Y-94615000D03*
X134874000Y-94615000D03*
X132334000Y-94615000D03*
X129794000Y-94615000D03*
X127254000Y-94615000D03*
X124714000Y-94615000D03*
X122174000Y-94615000D03*
X172974000Y-92075000D03*
X170434000Y-92075000D03*
X167894000Y-92075000D03*
X165354000Y-92075000D03*
X162814000Y-92075000D03*
X160274000Y-92075000D03*
X157734000Y-92075000D03*
X155194000Y-92075000D03*
X152654000Y-92075000D03*
X150114000Y-92075000D03*
X147574000Y-92075000D03*
X145034000Y-92075000D03*
X142494000Y-92075000D03*
X139954000Y-92075000D03*
X137414000Y-92075000D03*
X134874000Y-92075000D03*
X132334000Y-92075000D03*
X129794000Y-92075000D03*
X127254000Y-92075000D03*
X124714000Y-92075000D03*
X122174000Y-92075000D03*
X172974000Y-89535000D03*
X170434000Y-89535000D03*
X167894000Y-89535000D03*
X165354000Y-89535000D03*
X162814000Y-89535000D03*
X160274000Y-89535000D03*
X157734000Y-89535000D03*
X155194000Y-89535000D03*
X152654000Y-89535000D03*
X150114000Y-89535000D03*
X147574000Y-89535000D03*
X145034000Y-89535000D03*
X142494000Y-89535000D03*
X139954000Y-89535000D03*
X137414000Y-89535000D03*
X134874000Y-89535000D03*
X132334000Y-89535000D03*
X129794000Y-89535000D03*
X127254000Y-89535000D03*
X124714000Y-89535000D03*
X122174000Y-89535000D03*
X188214000Y-86995000D03*
X185674000Y-86995000D03*
X183134000Y-86995000D03*
X180594000Y-86995000D03*
X178054000Y-86995000D03*
X175514000Y-86995000D03*
X172974000Y-86995000D03*
X170434000Y-86995000D03*
X167894000Y-86995000D03*
X165354000Y-86995000D03*
X162814000Y-86995000D03*
X160274000Y-86995000D03*
X157734000Y-86995000D03*
X155194000Y-86995000D03*
X152654000Y-86995000D03*
X150114000Y-86995000D03*
X147574000Y-86995000D03*
X145034000Y-86995000D03*
X142494000Y-86995000D03*
X139954000Y-86995000D03*
X137414000Y-86995000D03*
X134874000Y-86995000D03*
X132334000Y-86995000D03*
X129794000Y-86995000D03*
X127254000Y-86995000D03*
X124714000Y-86995000D03*
X122174000Y-86995000D03*
X188214000Y-84455000D03*
X185674000Y-84455000D03*
X183134000Y-84455000D03*
X180594000Y-84455000D03*
X178054000Y-84455000D03*
X175514000Y-84455000D03*
X172974000Y-84455000D03*
X170434000Y-84455000D03*
X167894000Y-84455000D03*
X165354000Y-84455000D03*
X162814000Y-84455000D03*
X160274000Y-84455000D03*
X157734000Y-84455000D03*
X155194000Y-84455000D03*
X152654000Y-84455000D03*
X150114000Y-84455000D03*
X147574000Y-84455000D03*
X145034000Y-84455000D03*
X142494000Y-84455000D03*
X139954000Y-84455000D03*
X137414000Y-84455000D03*
X134874000Y-84455000D03*
X132334000Y-84455000D03*
X129794000Y-84455000D03*
X127254000Y-84455000D03*
X124714000Y-84455000D03*
X122174000Y-84455000D03*
X188214000Y-81915000D03*
X185674000Y-81915000D03*
X183134000Y-81915000D03*
X180594000Y-81915000D03*
X178054000Y-81915000D03*
X175514000Y-81915000D03*
X172974000Y-81915000D03*
X170434000Y-81915000D03*
X167894000Y-81915000D03*
X165354000Y-81915000D03*
X162814000Y-81915000D03*
X160274000Y-81915000D03*
X157734000Y-81915000D03*
X155194000Y-81915000D03*
X152654000Y-81915000D03*
X150114000Y-81915000D03*
X147574000Y-81915000D03*
X145034000Y-81915000D03*
X142494000Y-81915000D03*
X139954000Y-81915000D03*
X137414000Y-81915000D03*
X134874000Y-81915000D03*
X132334000Y-81915000D03*
X129794000Y-81915000D03*
X127254000Y-81915000D03*
X124714000Y-81915000D03*
X122174000Y-81915000D03*
D15*
X138938000Y-123825000D03*
X141478000Y-123825000D03*
X144018000Y-123825000D03*
X146558000Y-123825000D03*
X149098000Y-123825000D03*
X151638000Y-123825000D03*
X154178000Y-123825000D03*
X156718000Y-123825000D03*
X161798000Y-123825000D03*
X164338000Y-123825000D03*
X166878000Y-123825000D03*
X169418000Y-123825000D03*
X171958000Y-123825000D03*
X174498000Y-123825000D03*
X129794000Y-75565000D03*
X132334000Y-75565000D03*
X134874000Y-75565000D03*
X137414000Y-75565000D03*
X139954000Y-75565000D03*
X142494000Y-75565000D03*
X145034000Y-75565000D03*
X147574000Y-75565000D03*
X150114000Y-75565000D03*
X152654000Y-75565000D03*
X156718000Y-75565000D03*
X159258000Y-75565000D03*
X161798000Y-75565000D03*
X164338000Y-75565000D03*
X166878000Y-75565000D03*
X169418000Y-75565000D03*
X171958000Y-75565000D03*
X174498000Y-75565000D03*
D10*
X124968000Y-123825000D03*
X177038000Y-118745000D03*
X126238000Y-75565000D03*
X177038000Y-90805000D03*
M02*
