M48
; DRILL file {KiCad 5.1.2} date Sun 04 Aug 2019 06:29:00 PM CDT
; FORMAT={-:-/ absolute / inch / decimal}
; #@! TF.CreationDate,2019-08-04T18:29:00-05:00
; #@! TF.GenerationSoftware,Kicad,Pcbnew,5.1.2
; #@! TF.FileFunction,Plated,1,2,PTH
FMAT,2
INCH
T1C0.0394
T2C0.0400
T3C0.1063
T4C0.1200
%
G90
G05
T1
X6.21Y-4.325
X5.41Y-4.525
X6.11Y-4.425
X4.91Y-3.325
X6.61Y-4.625
X6.71Y-4.125
X5.01Y-3.225
X6.71Y-3.425
X7.71Y-3.925
X4.91Y-4.325
X4.51Y-4.225
X7.41Y-3.125
X7.31Y-3.125
X6.51Y-4.125
X7.408Y-3.026
X4.81Y-3.225
X7.71Y-3.725
X7.71Y-4.225
X4.31Y-4.125
X6.61Y-3.825
X5.01Y-3.825
X3.91Y-3.425
X4.708Y-2.926
X7.2755Y-2.56
X7.5755Y-2.655
X5.81Y-4.325
X4.91Y-4.225
X7.71Y-4.325
X5.81Y-4.625
X5.91Y-4.425
X4.01Y-4.625
X4.71Y-4.125
X7.71Y-3.525
X4.41Y-3.325
X4.81Y-4.524
X6.41Y-3.825
X4.81Y-3.825
X4.01Y-3.425
X6.1755Y-2.655
X3.91Y-3.125
X5.61Y-4.325
X7.41Y-4.125
X7.51Y-4.325
X4.71Y-3.925
X5.61Y-4.625
X5.71Y-4.425
X5.31Y-3.625
X4.51Y-3.525
X7.71Y-3.325
X6.21Y-3.725
X6.51Y-3.725
X4.71Y-4.425
X7.21Y-4.125
X5.81Y-3.125
X6.71Y-4.425
X5.5755Y-2.56
X4.71Y-4.325
X5.61Y-3.225
X5.11Y-3.625
X7.41Y-4.025
X7.008Y-2.926
X5.21Y-4.125
X6.01Y-3.725
X6.31Y-3.725
X4.41Y-4.425
X6.1755Y-2.755
X4.808Y-2.926
X6.81Y-3.625
X4.01Y-4.125
X6.51Y-4.425
X5.31Y-3.325
X5.3755Y-2.56
X7.11Y-4.125
X4.81Y-4.624
X7.708Y-2.926
X5.61Y-3.425
X5.31Y-4.325
X4.21Y-4.125
X5.01Y-4.125
X5.81Y-3.725
X7.21Y-3.425
X4.31Y-4.625
X6.41Y-4.325
X5.11Y-3.325
X4.0755Y-2.56
X5.31Y-4.025
X5.1755Y-2.56
X7.41Y-3.225
X4.008Y-3.026
X4.81Y-4.125
X5.11Y-3.925
X5.41Y-3.825
X5.31Y-4.225
X5.11Y-4.025
X4.008Y-2.926
X6.51Y-4.025
X4.91Y-3.925
X5.21Y-3.825
X4.01Y-4.225
X4.7755Y-2.655
X5.11Y-4.225
X3.908Y-3.026
X3.91Y-3.825
X7.41Y-3.825
X6.01Y-4.625
X6.31Y-3.525
X4.51Y-3.925
X6.31Y-4.025
X4.71Y-3.325
X5.51Y-3.625
X4.31Y-4.325
X5.91Y-3.325
X7.71Y-4.125
X7.11Y-4.525
X5.71Y-3.925
X6.11Y-3.525
X4.51Y-3.725
X4.01Y-4.425
X4.31Y-3.325
X7.708Y-3.026
X6.91Y-4.425
X5.71Y-3.325
X7.21Y-3.625
X5.91Y-4.025
X5.7755Y-2.56
X6.91Y-4.525
X4.41Y-3.925
X5.51Y-3.925
X4.91Y-4.525
X4.41Y-4.125
X4.61Y-4.025
X5.41Y-4.125
X3.91Y-4.725
X4.41Y-4.325
X6.41Y-3.125
X4.61Y-4.125
X5.71Y-3.125
X4.91Y-4.425
X4.11Y-3.625
X5.51Y-3.325
X7.41Y-3.525
X5.71Y-4.025
X5.11Y-4.625
X6.71Y-4.525
X4.51Y-3.625
X3.91Y-4.225
X4.11Y-4.625
X4.51Y-4.025
X7.41Y-3.425
X4.31Y-3.225
X4.21Y-3.225
X5.71Y-4.225
X5.31Y-3.125
X7.01Y-4.325
X7.21Y-4.025
X7.21Y-3.525
X5.51Y-4.025
X4.91Y-4.625
X6.51Y-4.525
X6.51Y-3.925
X4.01Y-4.725
X5.31Y-3.925
X7.708Y-4.626
X4.31Y-4.525
X4.01Y-4.525
X5.51Y-4.225
X6.11Y-3.625
X6.81Y-4.325
X7.41Y-3.925
X3.91Y-4.025
X7.61Y-4.525
X6.31Y-4.525
X3.91Y-4.425
X6.31Y-3.925
X4.41Y-3.825
X6.71Y-3.525
X4.01Y-4.325
X4.11Y-4.125
X5.81Y-3.525
X7.308Y-2.926
X5.61Y-3.125
X5.91Y-3.625
X7.21Y-3.925
X6.31Y-3.325
X4.0755Y-2.76
X7.41Y-4.525
X6.21Y-4.625
X6.11Y-3.925
X4.21Y-3.925
X6.51Y-3.525
X4.21Y-3.825
X4.61Y-3.525
X4.3755Y-2.56
X4.11Y-4.325
X5.61Y-3.525
X5.71Y-3.625
X6.11Y-3.325
X4.1755Y-2.66
X7.01Y-3.325
X6.41Y-4.625
X5.91Y-3.925
X4.3776Y-2.655
X4.3776Y-2.755
X4.4776Y-2.655
X4.4776Y-2.755
X4.9776Y-2.655
X4.9776Y-2.755
X5.0776Y-2.655
X5.0776Y-2.755
X5.1776Y-2.655
X5.1776Y-2.755
X5.2776Y-2.655
X5.2776Y-2.755
X5.3776Y-2.655
X5.3776Y-2.755
X5.4776Y-2.655
X5.4776Y-2.755
X5.5776Y-2.655
X5.5776Y-2.755
X5.6776Y-2.655
X5.6776Y-2.755
X5.7776Y-2.655
X5.7776Y-2.755
X5.8776Y-2.655
X5.8776Y-2.755
X6.3776Y-2.655
X6.3776Y-2.755
X6.4776Y-2.655
X6.4776Y-2.755
X6.5776Y-2.655
X6.5776Y-2.755
X6.6776Y-2.655
X6.6776Y-2.755
X6.7776Y-2.655
X6.7776Y-2.755
X6.8776Y-2.655
X6.8776Y-2.755
X6.9776Y-2.655
X6.9776Y-2.755
X7.0776Y-2.655
X7.0776Y-2.755
X7.1776Y-2.655
X7.1776Y-2.755
X7.2776Y-2.655
X7.2776Y-2.755
X7.5091Y-3.2117
X7.5091Y-3.3117
X7.5091Y-3.4117
X7.5091Y-3.5117
X7.5091Y-3.6117
X7.5091Y-3.7117
X7.5091Y-3.8117
X7.5091Y-3.9117
X7.5091Y-4.0117
X7.5091Y-4.1117
X7.6091Y-3.2117
X7.6091Y-3.3117
X7.6091Y-3.4117
X7.6091Y-3.5117
X7.6091Y-3.6117
X7.6091Y-3.7117
X7.6091Y-3.8117
X7.6091Y-3.9117
X7.6091Y-4.0117
X7.6091Y-4.1117
X4.1755Y-2.56
X5.11Y-3.725
X7.41Y-3.725
X4.41Y-4.525
X6.81Y-3.125
X7.1755Y-2.56
X7.108Y-4.626
X4.71Y-3.725
X6.81Y-3.325
X7.608Y-2.926
X6.11Y-4.225
X5.11Y-4.525
X3.91Y-3.925
X4.01Y-3.725
X5.61Y-4.125
X4.91Y-3.725
X6.01Y-4.325
X7.21Y-3.725
X5.11Y-3.525
X7.408Y-4.726
X7.508Y-4.626
X4.71Y-3.825
X6.61Y-3.325
X5.31Y-4.625
X6.01Y-3.425
X5.91Y-4.225
X4.01Y-4.025
X4.61Y-4.325
X4.91Y-3.525
X6.31Y-3.125
X4.108Y-2.926
X7.308Y-4.626
X7.4755Y-2.755
X7.3755Y-2.56
X6.51Y-3.625
X5.81Y-4.125
X5.91Y-3.225
X4.81Y-4.025
X5.81Y-3.425
X4.41Y-3.625
X7.208Y-4.726
X5.81Y-3.825
X6.31Y-3.625
X5.81Y-4.525
X4.11Y-3.825
X7.11Y-3.225
X5.21Y-4.425
X6.91Y-4.225
X4.608Y-2.926
X4.7755Y-2.56
X5.71Y-3.725
X5.61Y-3.825
X7.608Y-3.026
X3.908Y-2.926
X6.91Y-3.225
X5.01Y-4.425
X6.71Y-4.225
X4.61Y-3.625
X4.5755Y-2.56
X5.51Y-3.725
X6.0755Y-2.56
X4.7755Y-2.755
X5.51Y-3.125
X4.11Y-4.225
X7.21Y-3.325
X6.71Y-3.225
X6.51Y-4.225
X5.31Y-3.725
X5.11Y-3.125
X6.41Y-4.125
X4.31Y-3.825
X6.51Y-3.225
X7.308Y-3.026
X6.41Y-3.425
X6.31Y-4.225
X4.11Y-4.025
X5.31Y-3.525
X6.71Y-3.125
X6.015Y-4.73
X6.115Y-4.73
X6.215Y-4.73
X6.315Y-4.73
X6.415Y-4.73
X6.515Y-4.73
X6.615Y-4.73
X6.715Y-4.73
X7.4755Y-2.655
X6.8755Y-2.56
X6.11Y-4.025
X4.31Y-3.625
X6.21Y-4.125
X4.51Y-4.525
X6.31Y-3.225
X6.21Y-3.425
X7.41Y-4.225
X6.31Y-3.825
X4.71Y-4.525
X7.508Y-4.726
X6.6755Y-2.56
X6.71Y-3.625
X6.21Y-4.525
X7.41Y-4.325
X6.01Y-4.125
X5.31Y-3.425
X6.11Y-3.225
X7.21Y-4.225
X6.11Y-3.825
X4.508Y-3.026
X6.01Y-4.525
X7.21Y-4.325
X5.11Y-3.425
X7.31Y-3.225
X5.41Y-4.425
X5.51Y-3.225
X5.01Y-3.625
X7.11Y-4.225
X7.51Y-4.425
X4.9755Y-2.56
X5.91Y-3.825
X6.4755Y-2.56
X4.308Y-2.926
X6.61Y-4.325
X5.71Y-4.525
X6.41Y-4.425
X4.91Y-3.425
X4.61Y-3.925
X4.01Y-3.525
X5.31Y-3.225
X7.01Y-3.425
X4.81Y-3.625
X7.31Y-4.425
X4.61Y-3.425
X6.2755Y-2.56
X3.91Y-3.225
X6.31Y-4.325
X4.71Y-3.425
X5.51Y-4.525
X6.21Y-4.425
X6.71Y-4.625
X6.81Y-4.125
X7.41Y-3.325
X5.41Y-4.625
X5.11Y-3.225
X6.81Y-3.425
X7.11Y-4.425
X5.01Y-4.325
X7.21Y-3.125
X5.41Y-3.125
X5.31Y-4.525
X4.81Y-3.325
X6.51Y-4.625
X5.01Y-4.025
X6.61Y-4.125
X3.91Y-4.125
X4.91Y-3.225
X6.61Y-3.425
X7.71Y-3.825
X4.81Y-4.325
X4.71Y-3.525
X4.81Y-3.925
X5.11Y-3.825
X5.01Y-3.125
X5.91Y-4.325
X4.308Y-3.026
X4.81Y-4.425
X6.01Y-4.425
X4.21Y-3.525
X7.71Y-3.625
X6.51Y-3.825
X4.91Y-3.825
X4.41Y-4.025
X5.71Y-4.325
X4.81Y-4.225
X7.61Y-4.325
X7.71Y-4.025
X5.71Y-4.625
X4.21Y-4.425
X5.81Y-4.425
X7.71Y-3.425
X6.61Y-3.725
X5.51Y-4.325
X7.31Y-4.125
X6.81Y-4.425
X5.6755Y-2.56
X5.51Y-4.625
X5.61Y-4.425
X5.71Y-3.225
X5.21Y-3.625
X5.81Y-4.225
X4.41Y-3.525
X7.71Y-3.225
X6.11Y-3.725
X6.41Y-3.725
X6.61Y-4.425
X5.4755Y-2.56
X5.71Y-3.425
X5.41Y-4.325
X4.21Y-4.325
X5.11Y-4.125
X5.91Y-3.725
X7.31Y-3.425
X6.0755Y-2.755
X6.51Y-4.325
X3.91Y-4.525
X5.21Y-3.325
X5.41Y-4.025
X5.2755Y-2.56
X7.01Y-4.125
X5.51Y-3.425
X5.21Y-4.325
X4.51Y-3.425
X4.91Y-4.125
X5.21Y-3.925
X5.51Y-3.825
X4.91Y-3.125
X7.71Y-3.125
X5.01Y-3.325
X5.21Y-4.025
X5.0755Y-2.56
X4.41Y-3.725
X4.708Y-3.026
X6.61Y-4.025
X5.01Y-3.925
X5.31Y-3.825
X4.21Y-3.725
X4.408Y-2.926
X7.11Y-3.125
X5.21Y-4.225
X7.11Y-3.925
X4.51Y-4.425
X4.508Y-2.926
X6.41Y-3.525
X6.41Y-4.025
X7.41Y-3.625
X4.6755Y-2.655
X4.51Y-3.125
X5.01Y-4.225
X5.61Y-3.625
X7.31Y-3.825
X4.11Y-3.925
X6.01Y-3.325
X5.91Y-4.625
X7.21Y-4.525
X5.81Y-3.925
X4.11Y-3.525
X6.21Y-3.525
X7.108Y-2.926
X5.41Y-3.625
X7.01Y-4.425
X5.81Y-3.325
X6.01Y-4.025
X5.8755Y-2.56
X4.61Y-4.525
X7.01Y-4.525
X5.61Y-3.925
X6.01Y-3.525
X5.01Y-4.525
X5.51Y-4.125
X4.31Y-4.225
X3.91Y-4.325
X7.308Y-4.726
X4.71Y-3.125
X5.61Y-3.325
X7.11Y-3.625
X5.81Y-4.025
X6.81Y-4.525
X4.31Y-3.525
X7.71Y-4.425
X7.108Y-3.026
X4.31Y-3.425
X5.31Y-4.125
X4.21Y-4.025
X4.21Y-4.225
X4.81Y-3.525
X5.41Y-3.325
X7.31Y-3.525
X5.61Y-4.025
X4.21Y-3.625
X4.31Y-3.925
X5.01Y-4.625
X6.61Y-4.525
X4.108Y-3.026
X4.11Y-4.425
X7.008Y-3.026
X4.21Y-3.325
X4.21Y-4.73
X4.31Y-4.73
X4.41Y-4.73
X4.51Y-4.73
X4.61Y-4.73
X4.71Y-4.73
X4.81Y-4.73
X4.91Y-4.73
X5.61Y-4.225
X6.91Y-4.325
X7.11Y-4.025
X7.11Y-3.525
X3.91Y-3.325
X7.71Y-4.525
X6.41Y-4.525
X6.41Y-3.925
X6.81Y-3.525
X3.91Y-3.725
X7.608Y-4.626
X4.208Y-2.926
X4.808Y-3.026
X5.41Y-4.225
X6.01Y-3.625
X6.71Y-4.325
X7.31Y-3.925
X6.41Y-3.325
X4.1755Y-2.76
X7.51Y-4.525
X6.31Y-4.625
X6.21Y-3.925
X4.31Y-3.725
X4.51Y-4.325
X6.61Y-3.525
X4.61Y-3.725
X4.4755Y-2.56
X5.41Y-3.925
X4.11Y-3.725
X5.71Y-3.525
X6.61Y-3.125
X7.01Y-3.125
X6.91Y-3.125
X5.81Y-3.625
X6.21Y-3.325
X4.01Y-3.325
X6.11Y-4.625
X7.31Y-4.525
X6.01Y-3.925
X4.21Y-4.625
X4.71Y-4.025
X4.2755Y-2.56
X5.21Y-3.725
X7.21Y-3.825
X5.51Y-3.525
X6.01Y-3.125
X4.41Y-3.125
X7.208Y-4.626
X4.0755Y-2.66
X6.91Y-3.325
X5.21Y-4.525
X4.51Y-4.125
X5.71Y-4.125
X5.01Y-3.725
X7.31Y-3.725
X4.51Y-3.225
X7.0755Y-2.56
X4.11Y-3.225
X5.11Y-4.73
X5.21Y-4.73
X5.31Y-4.73
X5.41Y-4.73
X5.51Y-4.73
X5.61Y-4.73
X5.71Y-4.73
X5.81Y-4.73
X7.6755Y-2.755
X6.71Y-3.325
X7.508Y-2.926
X4.21Y-3.125
X4.71Y-3.225
X6.11Y-3.425
X6.01Y-4.225
X4.01Y-3.625
X4.81Y-3.725
X7.11Y-3.725
X5.01Y-3.525
X6.0755Y-2.655
X4.61Y-3.125
X4.11Y-3.325
X7.408Y-4.626
X7.5755Y-2.755
X7.4755Y-2.56
X5.91Y-4.125
X6.51Y-3.325
X5.21Y-4.625
X6.01Y-3.225
X4.91Y-4.025
X5.91Y-3.425
X4.41Y-4.625
X4.21Y-3.425
X6.11Y-4.325
X4.61Y-4.425
X5.21Y-3.125
X6.41Y-3.625
X5.91Y-4.525
X5.81Y-3.225
X6.61Y-3.925
X4.71Y-4.625
X4.51Y-3.325
X7.108Y-4.726
X5.71Y-3.825
X4.01Y-3.825
X4.408Y-3.026
X7.208Y-2.926
X4.11Y-4.525
X6.21Y-3.625
X7.01Y-3.225
X5.11Y-4.425
X6.81Y-4.225
X4.6755Y-2.56
X4.71Y-3.625
X5.61Y-3.725
X7.508Y-3.026
X4.31Y-4.025
X5.91Y-3.525
X6.1755Y-2.56
X4.208Y-3.026
X3.91Y-3.525
X7.31Y-3.325
X6.81Y-3.225
X6.61Y-4.225
X4.71Y-4.225
X5.41Y-3.725
X5.9755Y-2.56
X6.51Y-3.125
X4.6755Y-2.755
X7.11Y-3.325
X6.61Y-3.225
X6.51Y-3.425
X6.41Y-4.225
X7.11Y-3.825
X5.41Y-3.525
X5.91Y-3.125
X6.21Y-3.125
X6.11Y-3.125
X4.31Y-3.125
X6.9755Y-2.56
X6.21Y-4.025
X6.31Y-4.125
X6.41Y-3.225
X7.208Y-3.026
X6.31Y-3.425
X6.21Y-4.225
X4.51Y-4.625
X4.11Y-3.425
X5.21Y-3.525
X4.61Y-4.625
X3.91Y-4.625
X4.41Y-3.225
X4.01Y-3.225
X6.7755Y-2.56
X6.11Y-4.125
X4.81Y-3.125
X5.41Y-3.425
X4.61Y-3.825
X6.21Y-3.225
X4.608Y-3.026
X4.11Y-3.125
X4.01Y-3.125
X4.61Y-3.225
X3.91Y-3.625
X4.41Y-3.425
X4.61Y-3.325
X7.31Y-4.225
X4.61Y-4.225
X6.21Y-3.825
X6.61Y-3.625
X6.11Y-4.525
X7.31Y-4.325
X4.31Y-4.425
X5.21Y-3.425
X5.51Y-4.425
X7.61Y-4.425
X4.21Y-4.525
X6.01Y-3.825
X6.5755Y-2.56
X7.11Y-4.325
X7.31Y-4.025
X5.01Y-3.425
X7.21Y-3.225
X4.01Y-3.925
X5.31Y-4.425
X5.41Y-3.225
X7.11Y-3.425
X4.91Y-3.625
X7.01Y-4.225
X7.41Y-4.425
X4.8755Y-2.56
X6.3755Y-2.56
X5.61Y-4.525
X6.31Y-4.425
X6.81Y-4.625
X6.91Y-4.125
X4.81Y-3.425
X5.21Y-3.225
X6.91Y-3.425
X7.21Y-4.425
X5.11Y-4.325
X4.41Y-4.225
X4.51Y-3.825
X7.31Y-3.625
X7.408Y-2.926
T2
X5.47Y-4.875
X5.57Y-4.875
X5.67Y-4.875
X5.77Y-4.875
X5.87Y-4.875
X5.97Y-4.875
X6.07Y-4.875
X6.17Y-4.875
X6.17Y-2.975
X6.27Y-2.975
X6.37Y-2.975
X6.47Y-2.975
X6.57Y-2.975
X6.67Y-2.975
X6.77Y-2.975
X6.87Y-2.975
X6.37Y-4.875
X6.47Y-4.875
X6.57Y-4.875
X6.67Y-4.875
X6.77Y-4.875
X6.87Y-4.875
X5.11Y-2.975
X5.21Y-2.975
X5.31Y-2.975
X5.41Y-2.975
X5.51Y-2.975
X5.61Y-2.975
X5.71Y-2.975
X5.81Y-2.975
X5.91Y-2.975
X6.01Y-2.975
T3
X3.939Y-2.5731
X7.691Y-2.5731
X7.691Y-4.7503
T4
X4.92Y-4.875
X6.97Y-4.675
X3.94Y-2.575
X7.69Y-4.755
X7.695Y-2.575
X6.97Y-3.575
X4.97Y-2.975
T0
M30
